HIERARCHY
ROOT Hips
{
	OFFSET 56.877701 -32.693596 43.373703
	CHANNELS 6 Xposition Yposition Zposition Zrotation Xrotation Yrotation
	JOINT Chest
	{
		OFFSET -0.779999 1.005800 5.403099
		CHANNELS 6 Xposition Yposition Zposition Zrotation Xrotation Yrotation
		JOINT Chest2
		{
			OFFSET 0.000000 0.000000 4.236801
			CHANNELS 6 Xposition Yposition Zposition Zrotation Xrotation Yrotation
			JOINT Neck
			{
				OFFSET 0.000000 0.000000 9.874401
				CHANNELS 6 Xposition Yposition Zposition Zrotation Xrotation Yrotation
				JOINT Head
				{
					OFFSET 0.000000 0.000002 2.173893
					CHANNELS 6 Xposition Yposition Zposition Zrotation Xrotation Yrotation
					End Site
					{
						OFFSET 0.000000 0.000000 6.508102
					}
				}
			}
			JOINT LeftCollar
			{
				OFFSET 2.681599 -0.377600 5.432499
				CHANNELS 6 Xposition Yposition Zposition Zrotation Xrotation Yrotation
				JOINT LeftShoulder
				{
					OFFSET 5.161499 0.000000 0.000000
					CHANNELS 6 Xposition Yposition Zposition Zrotation Xrotation Yrotation
					JOINT LeftElbow
					{
						OFFSET 0.000000 0.000000 -10.869099
						CHANNELS 6 Xposition Yposition Zposition Zrotation Xrotation Yrotation
						JOINT LeftWrist
						{
							OFFSET 0.000000 0.000000 -13.344799
							CHANNELS 6 Xposition Yposition Zposition Zrotation Xrotation Yrotation
							End Site
							{
								OFFSET 0.000000 0.000000 -2.173901
							}
						}
					}
				}
			}
			JOINT RightCollar
			{
				OFFSET -2.381901 -1.419600 6.136600
				CHANNELS 6 Xposition Yposition Zposition Zrotation Xrotation Yrotation
				JOINT RightShoulder
				{
					OFFSET -4.550499 0.000000 0.000000
					CHANNELS 6 Xposition Yposition Zposition Zrotation Xrotation Yrotation
					JOINT RightElbow
					{
						OFFSET 0.000000 0.000000 -11.106499
						CHANNELS 6 Xposition Yposition Zposition Zrotation Xrotation Yrotation
						JOINT RightWrist
						{
							OFFSET 0.000000 0.000000 -12.874298
							CHANNELS 6 Xposition Yposition Zposition Zrotation Xrotation Yrotation
							End Site
							{
								OFFSET 0.000000 0.000000 -2.173901
							}
						}
					}
				}
			}
		}
	}
	JOINT LeftHip
	{
		OFFSET 2.431900 0.469601 -2.489399
		CHANNELS 6 Xposition Yposition Zposition Zrotation Xrotation Yrotation
		JOINT LeftKnee
		{
			OFFSET 0.000000 -0.000004 -18.200201
			CHANNELS 6 Xposition Yposition Zposition Zrotation Xrotation Yrotation
			JOINT LeftAnkle
			{
				OFFSET 0.000000 0.000000 -16.279900
				CHANNELS 6 Xposition Yposition Zposition Zrotation Xrotation Yrotation
				End Site
				{
					OFFSET 0.000000 -8.394100 0.000000
				}
			}
		}
	}
	JOINT RightHip
	{
		OFFSET -1.987999 -0.073502 -2.713001
		CHANNELS 6 Xposition Yposition Zposition Zrotation Xrotation Yrotation
		JOINT RightKnee
		{
			OFFSET 0.000000 -0.000004 -19.547802
			CHANNELS 6 Xposition Yposition Zposition Zrotation Xrotation Yrotation
			JOINT RightAnkle
			{
				OFFSET 0.000000 0.000000 -14.881199
				CHANNELS 6 Xposition Yposition Zposition Zrotation Xrotation Yrotation
				End Site
				{
					OFFSET 0.000000 -7.922699 0.000000
				}
			}
		}
	}
}
MOTION
Frames: 4
Frame Time: 0.041667
65.877701 -34.606297 43.520699 4729.973100 28.491111 18.843403 -0.779998 1.005798 5.403099 8.247266 -22.882720 -22.879546 0.000001 -0.000011 4.236798 -1.678426 0.224292 0.085506 0.000001 -0.000010 9.874406 -57.293228 -7.412518 3.178612 0.000003 0.000007 2.173885 -9.813909 11.458736 -7.268557 2.681598 -0.377603 5.432500 1.469407 3.861437 -30.029442 5.161515 0.000001 -0.000008 121.372339 -141.096982 28.970626 0.000012 0.000000 -10.869099 155.304213 -40.865162 186.925544 -0.000005 -0.000010 -13.344801 -30.171480 -8.200621 -13.879148 -2.381893 -1.419601 6.136603 28.047415 11.368406 -15.356716 -4.550502 -0.000010 0.000010 -1219.452685 -490.858539 -476.022330 -0.000001 -0.000011 -11.106493 686.498270 -4.252553 719.175862 0.000003 -0.000009 -12.874291 -415.844210 -4.945019 -7.196269 2.431897 0.469605 -2.489403 47.445175 -44.892665 29.184142 -0.000001 -0.000001 -18.200199 -83.931980 48.230452 33.974140 0.000001 0.000001 -16.279907 21.582021 16.935867 -3.656675 -1.987994 -0.073499 -2.713000 -187.959989 17.960502 -68.586697 0.000007 -0.000008 -19.547808 -1520.639221 -16.901769 -90.496182 0.000000 -0.000013 -14.881211 2117.524753 -4.077298 -430.544144
65.858704 -34.601395 43.522003 4730.045227 28.490826 18.817224 -0.780003 1.005802 5.403097 8.308084 -22.859081 -22.855502 0.000001 -0.000004 4.236794 -1.700373 0.197649 0.082201 -0.000003 -0.000001 9.874399 -57.467880 -7.473346 2.948221 -0.000004 -0.000004 2.173885 -9.781725 11.528830 -7.254001 2.681598 -0.377601 5.432494 1.711025 3.615339 -29.839481 5.161504 -0.000002 -0.000004 120.890086 -141.335506 28.793892 -0.000002 0.000002 -10.869106 154.181658 -41.063821 186.195519 -0.000002 -0.000017 -13.344793 -30.762936 -8.314575 -13.986874 -2.381900 -1.419600 6.136590 28.115541 11.394033 -15.482743 -4.550507 -0.000017 0.000010 -1219.394438 -490.934818 -475.664974 -0.000002 0.000009 -11.106497 686.686783 -4.520689 719.059640 -0.000004 -0.000004 -12.874294 -416.061438 -4.843363 -6.912892 2.431893 0.469604 -2.489401 47.639289 -44.876768 29.355993 -0.000004 -0.000010 -18.200199 -84.332701 48.206778 34.208330 0.000001 -0.000003 -16.279900 21.659595 16.895200 -3.584628 -1.987999 -0.073506 -2.712996 -188.123914 18.071176 -68.419357 -0.000002 -0.000003 -19.547800 -1520.515075 -16.840175 -90.518550 0.000015 -0.000006 -14.881199 2117.358424 -4.026365 -430.475432
65.839798 -34.598000 43.524902 4730.085443 28.501876 18.832399 -0.779995 1.005794 5.403097 8.371510 -22.873089 -22.878876 -0.000000 -0.000005 4.236798 -1.719036 0.175596 0.079404 0.000002 0.000004 9.874396 -57.581056 -7.578733 2.722740 0.000005 -0.000004 2.173892 -9.775937 11.623386 -7.118561 2.681597 -0.377597 5.432491 1.935428 3.388595 -29.648506 5.161510 0.000010 0.000010 120.448911 -141.545644 28.604559 -0.000003 0.000004 -10.869103 152.876518 -41.284634 185.311939 0.000007 0.000004 -13.344803 -31.674183 -8.416931 -14.095171 -2.381896 -1.419594 6.136592 28.209468 11.444320 -15.586580 -4.550507 -0.000005 0.000010 -1219.253135 -490.963123 -475.189375 -0.000005 -0.000008 -11.106501 686.806230 -4.642030 718.990846 0.000004 0.000011 -12.874293 -416.394778 -4.605719 -7.382855 2.431901 0.469604 -2.489407 47.834164 -44.896094 29.502237 0.000001 -0.000001 -18.200201 -84.684456 48.186356 34.419287 -0.000003 -0.000002 -16.279890 21.725630 16.857002 -3.532646 -1.987991 -0.073506 -2.713001 -188.289082 18.222475 -68.189679 0.000002 -0.000007 -19.547802 -1520.429179 -16.214635 -90.677120 0.000010 -0.000006 -14.881204 2117.730205 -3.912175 -430.202962
65.821602 -34.595097 43.526501 4730.114294 28.504435 18.867353 -0.779992 1.005802 5.403089 8.427534 -22.891791 -22.933897 0.000004 0.000002 4.236808 -1.731907 0.159036 0.077340 0.000002 0.000004 9.874397 -57.701028 -7.710465 2.489648 0.000006 -0.000004 2.173892 -9.746724 11.740099 -7.033286 2.681601 -0.377593 5.432499 2.219959 3.109372 -29.518493 5.161510 -0.000010 0.000004 119.964828 -141.718939 28.510781 0.000009 -0.000002 -10.869103 151.516245 -41.500349 184.361982 0.000005 -0.000008 -13.344795 -32.602702 -8.430503 -14.184915 -2.381895 -1.419588 6.136591 28.322387 11.524824 -15.653458 -4.550495 -0.000006 -0.000006 -1218.988123 -490.885313 -474.589957 -0.000002 -0.000002 -11.106508 686.830600 -4.612022 718.976639 -0.000007 0.000005 -12.874297 -416.583811 -3.923761 -9.312514 2.431910 0.469598 -2.489408 47.967903 -44.935435 29.593581 -0.000003 -0.000011 -18.200203 -84.890106 48.201434 34.555279 -0.000002 0.000005 -16.279894 21.746670 16.833075 -3.493925 -1.987989 -0.073511 -2.713002 -188.471530 18.388652 -67.926423 0.000003 0.000004 -19.547792 -1520.244490 -15.983372 -90.710260 0.000009 -0.000003 -14.881195 2117.477106 -3.873723 -430.122065
